<?xml version="1.0" encoding="utf-8"?>
<!-- Generator: Adobe Illustrator 22.0.0, SVG Export Plug-In . SVG Version: 6.00 Build 0)  -->
<svg version="1.1" id="Camada_1" xmlns="http://www.w3.org/2000/svg" xmlns:xlink="http://www.w3.org/1999/xlink" x="0px" y="0px"
	 viewBox="0 0 960 937" style="enable-background:new 0 0 960 937;" xml:space="preserve">
<style type="text/css">
	.st0{stroke:#000000;stroke-miterlimit:10;}
	.st1{fill:#F8F8F8;}
	.st2{font-family:'Geometric415BT-BlackA';}
	.st3{font-size:77.1591px;}
	.st4{fill:#F5F5F5;}
	.st5{font-family:'Ebrima-Bold';}
	.st6{font-size:103px;}
	.st7{fill:#FFFFFF;}
	.st8{fill:#FFFFFF;stroke:#000000;stroke-miterlimit:10;}
</style>
<path d="M591.7,433.7c0,9.1-2.5,16.9-5.8,24.6c-2.9,6.8-6.8,13-10.8,19.2c-5.1,7.9-11.2,15-17.3,22.1c-5.9,6.9-12.6,13-19.3,19.2
	c-8.8,8.1-18.5,14.9-29.2,20.5c-6.9,3.6-14,6.2-21.8,7c-8.9,0.9-17.3-0.9-25.2-4.5c-11.2-5.1-21.5-11.6-30.5-19.7
	c-7.5-6.7-14.7-13.6-21.5-20.9c-5.7-6.2-10.9-12.8-15.9-19.6c-4.9-6.7-9.3-13.6-12.6-21.1c-4.2-9.3-7.5-18.8-6.7-29.1
	c0.6-8.3,3.2-16.2,6.9-23.7c4.6-9.5,10.4-18.2,16.8-26.7c6.1-8,13-15.3,20-22.5c7.7-7.9,16.3-14.8,25.3-21.3
	c6.5-4.7,13.5-8.5,21.1-11.4c12.6-4.9,25.2-4.5,37.7,0.6c6.3,2.6,12.3,5.6,17.8,9.5c8.8,6.2,17.4,12.7,24.8,20.3
	c6.4,6.6,12.8,13.3,18.6,20.4c5.3,6.4,10,13.3,14.5,20.2c4,6.2,7.4,12.8,9.7,19.9C590.3,422.4,591.8,428.3,591.7,433.7z
	 M483.1,535.3c4.6,0.1,8.9-0.9,13.1-2.4c8.3-3,15.7-7.3,22.6-12.6c8.4-6.5,16.5-13.1,23.7-20.8c6.4-6.8,12.7-13.6,18.1-21.2
	c5.1-7.1,10-14.2,13.7-22.1c2.9-6.3,5.3-12.8,5.9-19.7c0.5-6.9-1.4-13.3-3.9-19.7c-2.8-7.3-6.9-14.1-11.4-20.6
	c-4.7-6.7-9.7-13.4-15.3-19.5c-6.6-7.3-13.6-14.1-20.9-20.8c-9-8.2-19.3-14.9-30.7-19.8c-6.1-2.6-12.6-3.7-19.4-2.8
	c-5.8,0.8-10.9,3.1-16,5.7c-9.7,5-18.5,11.2-26.4,18.5c-7.3,6.7-14.5,13.4-20.9,21c-6.4,7.6-12.5,15.3-17.6,23.8
	c-3.3,5.6-6.4,11.3-8.6,17.4c-3.1,8.6-4,17.2-0.9,25.9c1.7,5.1,3.6,10.2,6.3,14.8c4.2,7.3,8.9,14.5,14,21.2
	c5.2,6.8,11.1,13.1,17,19.4c7.3,7.7,15.6,14.4,24.2,20.8c3.9,2.9,8.2,5.3,12.5,7.6C468.7,532.8,475.6,535.2,483.1,535.3z"/>
<path d="M597.9,484.2c-3.7-1.6-7.1-3.1-10.5-4.6c2.4-4.3,4.7-8.2,6.7-12.3c4.8-9.5,8.2-19.4,8.8-30.1c0.6-9.8-1.6-19.1-5.3-28.1
	c-2.9-7.1-6.4-14-10.8-20.6c3.5-1.5,6.9-3,10.5-4.6c1.6,2.8,3.3,5.6,4.8,8.4c4.2,7.8,7.7,15.9,9.9,24.4c3.7,14,2.8,27.8-1.9,41.5
	c-2.4,6.9-5.5,13.5-9,19.9C600.2,480,599.1,482.1,597.9,484.2z"/>
<path class="st0" d="M379.7,388.4c-0.9,1.5-1.8,2.9-2.6,4.3c-4.4,7.6-8.2,15.4-10.8,23.8c-4.4,14.2-3.3,28,2.1,41.8
	c2.7,6.8,6,13.2,9.8,19.5c0.3,0.5,0.6,0.9,1.1,1.8c-3.5,1.6-7,3.1-10.6,4.7c-1.7-3-3.3-5.9-4.8-8.7c-5.5-10.2-9.6-20.9-11.2-32.4
	c-1.1-7.9-0.6-15.8,1.1-23.6c1.6-7.2,4.1-14,7.3-20.6c2.3-4.6,4.8-9,7.2-13.5c0.3-0.5,0.6-0.9,1-1.5
	C372.8,385.4,376.2,386.9,379.7,388.4z"/>
<path d="M568.8,433.5c-0.1,6-2.1,11.5-4.7,17c-4.6,9.7-10.9,18.5-17.7,27c-6.1,7.6-13,14.5-20.1,21.3c-8.7,8.3-18.2,15.3-29,20.9
	c-5,2.6-10.1,4.4-15.7,3.9c-4.3-0.4-8.3-1.9-12.1-3.9c-6.3-3.3-12.3-7-17.9-11.4c-3.3-2.5-6.6-5-9.5-7.9
	c-6.6-6.6-13.4-13.2-19.4-20.3c-5.5-6.4-10.3-13.4-14.9-20.5c-3.7-5.6-6.6-11.7-8.5-18.1c-2.1-7.1-1.1-14,1.6-20.8
	c3.1-7.8,7.6-14.8,12.3-21.8c5.1-7.4,11.1-14.1,17.1-20.8c7.1-7.9,15.3-14.8,23.8-21.4c6-4.7,12.4-8.5,19.4-11.4
	c7.4-3.1,14.7-2.5,21.9,0.7c5.7,2.5,11.2,5.6,16.1,9.4c8.1,6.3,16.2,12.7,23,20.2c6.1,6.7,12,13.4,17.4,20.5
	c4.8,6.2,9.1,12.8,12.3,19.9C566.5,421.7,568.8,427.3,568.8,433.5z"/>
<text transform="matrix(1.3266 0 0 1 469.4111 462.127)" class="st1 st2 st3">.</text>
<text transform="matrix(1.1126 0 0 1 418.0005 460.959)" class="st4 st5 st6">c</text>
<path class="st7" d="M483.2,535.3c-7.6-0.1-14.4-2.5-20.9-5.9c-4.3-2.3-8.6-4.7-12.5-7.6c-8.6-6.3-16.9-13-24.2-20.7
	c-5.9-6.3-11.8-12.6-17-19.4c-5.2-6.7-9.8-13.9-14-21.2c-2.7-4.6-4.6-9.8-6.3-14.8c-3-8.7-2.1-17.3,0.9-25.9
	c2.2-6.1,5.2-11.8,8.6-17.4c5-8.5,11.2-16.2,17.6-23.8c6.3-7.6,13.6-14.3,20.9-21c7.9-7.3,16.7-13.5,26.4-18.5
	c5-2.6,10.2-4.8,16-5.7c6.8-1,13.3,0.1,19.3,2.8c11.4,4.9,21.7,11.6,30.7,19.8c7.3,6.6,14.4,13.5,20.9,20.8
	c5.6,6.1,10.5,12.8,15.3,19.5c4.5,6.4,8.6,13.2,11.4,20.6c2.5,6.3,4.4,12.8,3.9,19.7c-0.5,7-2.9,13.4-5.9,19.7
	c-3.7,7.9-8.6,15-13.7,22.1c-5.4,7.5-11.7,14.4-18.1,21.2c-7.2,7.7-15.3,14.4-23.7,20.8c-6.9,5.3-14.4,9.6-22.6,12.6
	C492.1,534.5,487.7,535.4,483.2,535.3z M568.8,434.4c0-6.3-2.3-11.8-4.8-17.3c-3.2-7.1-7.5-13.7-12.3-19.9
	c-5.4-7.1-11.4-13.9-17.4-20.5c-6.9-7.5-14.9-13.9-23-20.2c-4.9-3.8-10.3-6.8-16.1-9.4c-7.2-3.2-14.5-3.8-21.9-0.7
	c-7.1,2.9-13.5,6.7-19.4,11.4c-8.5,6.6-16.6,13.5-23.7,21.4c-6,6.7-12.1,13.4-17.1,20.8c-4.7,6.9-9.3,14-12.3,21.8
	c-2.7,6.8-3.7,13.6-1.6,20.8c1.9,6.4,4.8,12.5,8.5,18.1c4.6,7,9.4,14,14.9,20.5c6,7.1,12.8,13.7,19.4,20.3c2.9,2.9,6.3,5.4,9.5,7.9
	c5.6,4.3,11.6,8.1,17.9,11.4c3.9,2,7.8,3.5,12.1,3.9c5.7,0.5,10.8-1.3,15.7-3.9c10.8-5.6,20.4-12.6,29-20.9
	c7.1-6.8,14-13.7,20.1-21.3c6.8-8.5,13.1-17.3,17.7-27C566.7,445.9,568.8,440.3,568.8,434.4z"/>
<path class="st8" d="M537.4,434.1c5.1,1.9,6.4,5.8,6.6,10.1c0.2,5.6,0,11.3,0,17c0,0.3,0,0.5-0.1,0.9c-6.2,0-12.4,0-18.6,0
	c0-0.4-0.1-0.8-0.1-1.2c0-4.3,0-8.6,0-12.9c0-0.5,0-1.1-0.1-1.6c-0.2-2.1-0.8-2.8-3.2-3.1c-1.4-0.2-2.9-0.2-4.5-0.3
	c0,6.5,0,12.8,0,19.1c-6.3,0-12.4,0-18.5,0c0-0.3-0.1-0.5-0.1-0.7c0-12.1-0.1-24.2,0.1-36.3c0.1-5.6,2.2-10.5,7.1-14.3
	c3.4-2.6,7.5-4,11.9-4.4c5.4-0.4,10.7,0,15.6,2.4c8.2,4.1,11.8,13.7,7.9,21.1c-0.4,0.8-1.1,1.6-1.7,2.4
	C539,432.8,538.2,433.4,537.4,434.1z M517.2,429.7c2.3-0.2,4.1-0.2,5.9-0.6c1.9-0.4,2.9-1.9,2.8-3.7c-0.1-2-1.4-3.5-3.4-3.8
	c-2.4-0.4-4.2,0.5-4.7,2.7C517.4,425.9,517.4,427.6,517.2,429.7z"/>
<path class="st7" d="M482.7,535.3c-7.6-0.1-14.5-2.5-21-5.9c-4.3-2.3-8.7-4.7-12.6-7.6c-8.6-6.3-17-13-24.3-20.7
	c-5.9-6.3-11.8-12.6-17-19.3c-5.2-6.7-9.8-13.9-14.1-21.1c-2.7-4.6-4.6-9.7-6.3-14.8c-3-8.7-2.1-17.3,1-25.9
	c2.2-6.1,5.3-11.8,8.6-17.4c5.1-8.5,11.3-16.1,17.7-23.7c6.4-7.6,13.6-14.3,21-21c8-7.3,16.8-13.5,26.5-18.5
	c5.1-2.6,10.2-4.8,16-5.7c6.8-1,13.3,0.1,19.4,2.8c11.5,4.9,21.8,11.6,30.9,19.8c7.3,6.6,14.4,13.5,21,20.7
	c5.6,6.1,10.6,12.7,15.3,19.5c4.6,6.4,8.6,13.2,11.5,20.5c2.5,6.3,4.4,12.8,3.9,19.6c-0.5,6.9-2.9,13.4-5.9,19.7
	c-3.7,7.9-8.6,15-13.7,22c-5.4,7.5-11.8,14.3-18.2,21.1c-7.2,7.7-15.4,14.3-23.8,20.8c-6.9,5.3-14.4,9.6-22.7,12.6
	C491.6,534.5,487.2,535.4,482.7,535.3z M568.8,434.6c0-6.3-2.3-11.8-4.8-17.3c-3.2-7.1-7.6-13.7-12.4-19.9
	c-5.5-7.1-11.4-13.9-17.5-20.5c-6.9-7.5-15-13.9-23.1-20.2c-4.9-3.8-10.4-6.8-16.2-9.3c-7.2-3.2-14.5-3.8-22-0.7
	c-7.1,2.9-13.6,6.7-19.5,11.4c-8.5,6.6-16.7,13.5-23.9,21.4c-6.1,6.7-12.1,13.3-17.2,20.7c-4.8,6.9-9.3,13.9-12.4,21.7
	c-2.7,6.8-3.7,13.6-1.6,20.7c1.9,6.4,4.9,12.5,8.6,18.1c4.6,7,9.5,14,15,20.4c6.1,7.1,12.9,13.6,19.5,20.2c2.9,2.9,6.3,5.4,9.6,7.9
	c5.6,4.3,11.6,8,18,11.3c3.9,2,7.9,3.5,12.2,3.9c5.7,0.5,10.8-1.3,15.8-3.9c10.9-5.5,20.5-12.6,29.2-20.8c7.1-6.8,14-13.7,20.2-21.3
	c6.8-8.5,13.1-17.2,17.8-27C566.6,446.1,568.7,440.5,568.8,434.6z"/>
</svg>
